<?xml version="1.0" standalone="no"?>
<svg xmlns="http://www.w3.org/2000/svg" height="1646pt" preserveAspectRatio="xMidYMid meet" viewBox="0 0 1920 1646" width="1920pt">
<path d="m4870 16442c-46-23-80-75-80-122 0-39 23-87 382-820 80-162 249-506 375-765 127-258 322-654 433-880 211-427 253-516 248-520-2-2-176 5-388 15s-594 28-850 39c-285 13-501 27-557 37-76 13-102 14-143 4-174-42-246-248-137-392 43-56 105-86 197-97 53-6 209-53 530-159 432-143 716-237 1565-516l370-121 55-110c128-255 542-1107 538-1109-1-2-115 5-253 15-137 10-452 32-700 49-247 17-639 44-870 60-231 17-448 30-481 30-117 0-215-77-250-197-22-74-8-147 43-223 35-54 637-938 1061-1558 117-173 212-315 210-317-2-1-165-15-363-29-198-15-499-38-670-51l-309-24-81 73c-361 326-1808 1617-1836 1638-51 39-125 55-192 39-95-22-164-89-188-185-19-77-5-123 75-248 40-62 258-402 485-756s411-645 409-647c-1-2-176-15-388-29-1189-81-1444-98-1845-126-242-16-579-39-750-51-333-22-346-25-389-82-29-39-29-115 0-154 43-57 56-60 389-82 171-12 506-35 745-51s633-43 875-60c242-16 645-44 895-61s457-32 459-34c5-5-15-37-541-856-229-356-420-661-427-679-17-49-13-130 8-175 24-52 75-103 126-126 53-24 147-24 200 0 22 10 215 175 440 377 220 197 654 586 964 864l564 505 56-2c69-3 1259-82 1284-86 15-2-3-34-90-162-756-1114-1190-1762-1204-1795-49-123 30-290 159-336 52-19 88-18 568 16 236 16 625 44 864 60 239 17 552 39 695 49s261 17 263 15c2-1-130-276-293-611l-296-609-207-68c-114-37-369-121-567-186-1413-465-1645-540-1682-540-97 0-183-48-230-128-24-40-28-58-28-122s4-82 28-123c35-59 92-101 157-117 41-10 66-9 138 4 59 11 307 26 767 46 374 17 759 35 855 40 95 5 176 8 177 6 2-2-321-662-718-1467-779-1580-750-1513-703-1576 11-15 33-36 48-47 38-29 114-29 152 0 16 11 389 558 831 1215 441 657 850 1265 908 1353l107 158 57-108c59-111 248-477 577-1115 102-196 191-379 199-406 31-103 126-175 233-175 190 0 305 190 220 362-22 43-72 270-238 1070-116 558-233 1118-259 1244l-48 229 321 479c176 263 347 517 379 564l59 85 235-488c129-268 354-735 500-1038 145-302 276-565 289-582 42-55 106-85 190-91 148-9 217 34 288 181 24 51 107 220 184 377 465 949 615 1257 704 1439l99 204 151-224c83-123 254-378 379-566l229-342-20-88c-21-94-227-1058-406-1903-35-168-76-357-90-420-27-120-26-177 2-231 63-122 207-173 329-115 28 13 60 34 71 47 19 21 124 221 614 1174 63 121 139 269 171 329l57 108 120-178c66-99 211-314 322-479 1007-1501 1380-2052 1404-2069 38-29 114-29 152 0 47 35 67 70 67 116 0 34-26 95-125 298-173 353-591 1204-798 1625-431 879-512 1046-509 1049 2 2 137-2 299-10 1578-76 1527-74 1578-59 95 29 172 124 172 214 0 74-20 122-75 175l-50 49-1255 416-1255 416-107 215c-300 599-492 990-488 993 3 3 57 1 120-4s378-27 700-49 775-54 1006-70c475-34 501-35 556-18 92 27 180 150 181 251 1 29-5 68-11 87-7 19-194 305-416 635-223 330-513 761-646 958-133 198-240 360-238 362 2 1 306 23 677 48l673 45 961-869c903-817 964-871 1015-885 90-27 170-6 240 60 41 38 58 69 72 130 19 84 6 109-243 498-617 960-718 1119-723 1133-4 10 0 15 11 15 16 0 324 22 2275 160 1082 77 1008 67 1058 140 40 60 20 151-42 190-35 21 24 16-1061 90-416 28-663 45-1775 121-256 17-466 32-468 34s126 205 284 452c158 246 343 534 409 638 67 105 156 243 198 308 101 157 109 209 49 320-67 125-240 164-351 79-20-14-207-179-416-366s-549-491-755-675c-206-185-458-410-561-502l-185-167-180 14c-928 69-1130 84-1151 84-16 0-23 5-20 13 2 6 292 437 643 957 394 583 645 964 656 995 22 63 22 99 1 164-34 108-135 181-247 181-34 0-565-36-1181-80-615-43-1121-78-1123-76-1 2 131 277 295 612l298 608 180 58c99 32 308 101 465 152 157 52 623 205 1035 341 413 135 770 253 795 262 58 20 131 95 148 149 29 97 4 185-71 249-80 69-53 68-855 30-1067-51-1107-53-1110-50-2 2 138 287 810 1645 608 1227 638 1290 638 1329 0 72-72 141-146 141-72 0-65 9-516-663-1083-1614-1403-2089-1408-2092-8-5-827 1575-841 1623-36 124-182 199-311 160-51-15-126-82-149-133-27-59-25-149 5-211 15-29 43-136 70-264 25-118 75-354 111-525 57-271 116-550 320-1515 25-118 47-221 50-228s-33-68-78-135c-46-67-180-266-297-442-118-176-252-375-298-443l-84-123-28 58c-15 32-168 351-340 708-172 358-341 709-375 780-221 460-264 542-296 574-103 102-268 102-375-1-22-21-178-329-540-1069-280-571-511-1039-514-1039-4 0-178 251-388 558l-381 559 60 284c32 156 84 401 114 544 67 323 130 624 190 910 25 121 73 348 106 505 72 341 72 366-7 459-86 103-270 108-361 9-11-12-124-223-250-468-495-961-588-1138-593-1135-3 2-162 237-353 522-1119 1665-1455 2164-1473 2184-45 50-104 61-164 31zm4778-3837c50-147 166-483 392-1135 94-272 194-563 222-645l51-150-352-525c-194-289-356-525-361-525-12 0-710 1040-710 1058 0 7 52 163 116 347s140 405 169 490 110 319 180 520 152 440 183 532 59 164 63 160c3-4 24-61 47-127zm-3673-2170c132-25 601-115 1042-200s805-155 808-155c4 0 48-87 99-192 52-106 175-358 274-561 99-202 183-375 186-385 6-17-12-19-251-35-142-10-420-29-618-42s-370-25-382-25c-15 0-87 76-274 293-139 160-353 407-474 547-388 448-670 774-684 793-13 17-12 18 10 13 13-3 132-26 264-51zm7523 37c-7-10-328-382-713-826l-700-808-80 6c-265 20-1091 76-1127 76-24 0-49 4-56 8-9 7 59 153 268 577 154 313 282 570 283 571 2 2 215 43 1082 210 72 14 335 65 585 114s459 89 463 89c5 1 2-7-5-17zm-1136-3159c855-994 1148-1336 1145-1339-1-2-70 10-152 26-83 16-256 49-385 74-1276 245-1596 308-1601 314-9 9-546 1118-554 1141-5 16 12 18 192 30 109 7 376 25 593 41 217 15 416 28 442 29l46 1zm-4847 282c198-13 476-32 618-42 234-15 257-18 252-34-8-23-545-1122-553-1131-6-6-398-83-1857-363-154-30-281-53-282-51-2 2 317 373 709 824 518 599 717 822 732 822 12 0 183-11 381-25zm2437-1277c188-281 347-521 352-533 9-23 5-36-279-855-230-664-316-913-370-1070-30-88-55-149-59-140-3 8-85 245-182 525-96 281-217 632-269 780-51 149-130 378-176 510l-83 240 354 528c195 290 357 527 361 527s162-230 351-512z" transform="matrix(.1 0 0 -.1 0 1646)" fill="#a08479" stroke="none" stroke-width="2" vector-effect="non-scaling-stroke"/>
</svg>
